<?xml version="1.0" encoding="UTF-8" standalone="no"?>
<!DOCTYPE svg
          PUBLIC "-//W3C//DTD SVG 1.1//EN" "http://www.w3.org/Graphics/SVG/1.1/DTD/svg11.dtd"><svg width="100%"
     height="100%"
     viewBox="0 0 2250 2250"
     version="1.1"
     xmlns="http://www.w3.org/2000/svg"
     xmlns:xlink="http://www.w3.org/1999/xlink"
     xml:space="preserve"
     xmlns:serif="http://www.serif.com/"
     style="fill-rule:evenodd;clip-rule:evenodd;stroke-linecap:round;stroke-linejoin:round;stroke-miterlimit:1;">
  <path d="M2173.56,1102.22l-0,1071.34l-2097.12,-0l0,-2097.12l1069.94,0m329.995,0l697.186,0l-0,694.899"
        style="fill:none;stroke:#12284c;stroke-width:145.83px;" />
  <g id="Layer1">
    <path d="M1441.95,803.252l-599.203,599.461"
          style="fill:none;stroke:#12284c;stroke-width:145.83px;" />
    <path d="M1313.28,1273.91l-339.631,-339.631"
          style="fill:none;stroke:#12284c;stroke-width:145.83px;" />
    <path d="M1194.32,711.906l239.407,-239.406c93.724,-93.724 245.907,-93.724 339.631,-0c93.724,93.724 93.724,245.907 0,339.631l-240.09,240.091m-438.166,438.165l-238.802,238.803c-93.724,93.723 -245.908,93.723 -339.632,-0c-93.723,-93.724 -93.723,-245.908 0,-339.632l238.652,-238.652"
          style="fill:none;stroke:#12284c;stroke-width:145.83px;" />
  </g>
</svg>
