<?xml version="1.0" encoding="UTF-8" standalone="no"?>
<!DOCTYPE svg
          PUBLIC "-//W3C//DTD SVG 1.1//EN" "http://www.w3.org/Graphics/SVG/1.1/DTD/svg11.dtd">
<svg width="100%"
     height="100%"
     viewBox="0 0 900 900"
     version="1.1"
     xmlns="http://www.w3.org/2000/svg"
     xmlns:xlink="http://www.w3.org/1999/xlink"
     xml:space="preserve"
     xmlns:serif="http://www.serif.com/"
     style="fill:#12284c;fill-rule:evenodd;clip-rule:evenodd;stroke-linejoin:round;stroke-miterlimit:2;">
    <g transform="matrix(0.996144,0,0,0.996144,-60.0027,-60.0246)">
        <path d="M949.647,246.235C937.471,231.235 919.471,222.588 900.235,222.588L211.47,222.588L205.294,178.47C200.882,147.235 173.882,123.764 142.294,123.764L88.47,123.764C72.941,123.764 60.235,136.47 60.235,151.999C60.235,167.528 72.941,180.234 88.47,180.234L142.47,180.234C145.999,180.234 148.999,182.881 149.529,186.234L225.588,732.587C230,763.822 257,787.293 288.588,787.293L319.117,787.293C315.941,796.117 314.176,805.646 314.176,815.528C314.176,862.293 352.117,900.234 398.882,900.234C445.647,900.234 483.588,862.293 483.588,815.528C483.588,805.646 481.823,796.116 478.647,787.293L629.529,787.293C626.353,796.117 624.588,805.646 624.588,815.528C624.588,862.293 662.529,900.234 709.294,900.234C756.059,900.234 794,862.293 794,815.528C794,805.646 792.235,796.116 789.059,787.293L850.824,787.293C866.353,787.293 879.059,774.587 879.059,759.058C879.059,743.529 866.353,730.823 850.824,730.823L288.589,730.823C285.06,730.823 282.06,728.176 281.53,724.823L274.471,674.352L830.53,674.352C860.354,674.352 886.471,653.176 892.648,624.058L962.177,299.352C966.412,280.646 961.824,261.234 949.648,246.234L949.647,246.235Z"
              style="fill-rule:nonzero;" />
    </g>
</svg>
